<svg width="22" height="22" viewBox="0 0 22 22" fill="none" xmlns="http://www.w3.org/2000/svg">
<path fill-rule="evenodd" clip-rule="evenodd" d="M21.4999 6.06687H0.0986328L2.74822 21.3535H18.8504L21.4999 6.06687ZM19.2323 0.716797H2.3659L2.60281 2.44936H18.9958L19.2323 0.716797ZM20.914 3.13746H0.684583L1.03529 5.27729H20.5633L20.914 3.13746ZM9.27382 11.1226C9.27382 11.9798 9.96868 12.6746 10.8258 12.6746C11.683 12.6746 12.3778 11.9798 12.3778 11.1226C12.3778 10.2655 11.683 9.57061 10.8258 9.57061C9.96868 9.57061 9.27382 10.2655 9.27382 11.1226ZM10.826 13.7092C11.9484 13.7092 12.8584 14.6191 12.8584 15.7415V17.9217C12.8584 18.085 12.726 18.2174 12.5627 18.2174H9.08919C8.92592 18.2174 8.79357 18.085 8.79357 17.9217V15.7415C8.79357 14.6191 9.7035 13.7092 10.826 13.7092Z" fill="#EE3224"/>
</svg>
