<svg width="25" height="16" viewBox="0 0 25 16" fill="none" xmlns="http://www.w3.org/2000/svg">
<path fill-rule="evenodd" clip-rule="evenodd" d="M5.02116 7.39558C5.06149 7.48223 5.04214 7.58625 4.97306 7.64997C4.60551 7.98895 3.4421 9.12755 2.44336 10.8166C2.1746 11.2711 1.64266 11.4721 1.15875 11.3032L1.13437 11.2947C0.594389 11.1061 0.279983 10.5185 0.407789 9.93696C0.68786 8.66298 1.42104 6.42564 3.30571 4.37076C3.40436 4.26324 3.57529 4.29067 3.63777 4.42477L5.02116 7.39558ZM23.8456 11.3098C23.3639 11.4669 22.8414 11.2623 22.5783 10.811C21.4912 8.94581 18.1952 4.38505 12.0349 4.55507C11.9924 4.55621 11.9504 4.54357 11.9152 4.51857L7.71122 1.53033C7.57769 1.43546 7.59616 1.22349 7.74427 1.15641C8.4269 0.847151 10.1143 0.203125 12.3296 0.203125C17.7394 0.203125 23.0191 3.53077 24.585 9.91031C24.7322 10.5099 24.4094 11.126 23.8456 11.3098ZM12.56 13.2029C11.6146 13.2029 10.8483 12.3993 10.8483 11.4081C10.8483 10.4168 11.6146 9.61327 12.56 9.61327C13.5052 9.61327 14.2715 10.4168 14.2715 11.4081C14.2715 12.3993 13.5052 13.2029 12.56 13.2029ZM12.7801 6.75712C9.79632 4.67966 6.84689 2.55098 3.88275 0.439589C3.82464 0.398226 3.76339 0.38008 3.70446 0.38008C3.49027 0.38008 3.3068 0.620688 3.41887 0.861296C5.12512 4.52542 6.83136 8.18948 8.53761 11.8536C9.178 13.2289 9.75763 14.5159 11.2081 15.1022C11.6518 15.2815 12.1192 15.3703 12.5846 15.3703C13.411 15.3703 14.2304 15.09 14.8954 14.5384C14.9418 14.5 14.9876 14.4603 15.0327 14.4192C15.0778 14.3782 15.1218 14.3363 15.1647 14.2937C16.459 13.0059 16.7245 10.6914 15.6709 9.1382C15.0031 8.15369 13.7258 7.41558 12.7801 6.75712Z" fill="#EE3224"/>
<circle cx="12" cy="10.5" r="3" fill="#EE3224"/>
</svg>
