<?xml version="1.0" encoding="UTF-8" standalone="no"?>
<svg
   xmlns:dc="http://purl.org/dc/elements/1.1/"
   xmlns:cc="http://creativecommons.org/ns#"
   xmlns:rdf="http://www.w3.org/1999/02/22-rdf-syntax-ns#"
   xmlns:svg="http://www.w3.org/2000/svg"
   xmlns="http://www.w3.org/2000/svg"
   viewBox="0 0 322.06668 285.98666"
   height="285.98666"
   width="322.06668"
   xml:space="preserve"
   id="svg2"
   version="1.1"><metadata
     id="metadata8"><rdf:RDF><cc:Work
         rdf:about=""><dc:format>image/svg+xml</dc:format><dc:type
           rdf:resource="http://purl.org/dc/dcmitype/StillImage" /></cc:Work></rdf:RDF></metadata><defs
     id="defs6" /><g
     transform="matrix(1.3333333,0,0,-1.3333333,0,285.98667)"
     id="g10"><g
       transform="scale(0.1)"
       id="g12"><path
         id="path14"
         style="fill:#ffffff;fill-opacity:1;fill-rule:nonzero;stroke:none"
         d="M 192.676,358.219 C 86.4336,358.219 0,444.648 0,550.891 V 1594.15 c 0,106.24 86.4336,192.68 192.676,192.68 H 2222.82 c 106.24,0 192.67,-86.44 192.67,-192.68 V 550.891 c 0,-106.243 -86.43,-192.672 -192.67,-192.672 H 192.676" /><path
         id="path16"
         style="fill:#ffffff;fill-opacity:1;fill-rule:nonzero;stroke:none"
         d="M 2222.82,418.219 H 192.676 C 119.516,418.219 60,477.73 60,550.891 V 1594.15 c 0,73.16 59.516,132.68 132.676,132.68 H 2222.82 c 73.16,0 132.67,-59.52 132.67,-132.68 V 550.891 c 0,-73.161 -59.51,-132.672 -132.67,-132.672" /><path
         id="path18"
         style="fill:#ef2d47;fill-opacity:1;fill-rule:nonzero;stroke:none"
         d="M 597.348,932.738 H 279.004 V 1205.6 h 318.344 l -0.039,0.17 v 318.34 h 272.863 v -318.34 l -0.02,-0.13 H 1188.5 V 932.801 H 870.152 l 0.02,0.039 V 614.5 H 597.309 v 318.34 l 0.039,-0.102 v 0" /><path
         id="path20"
         style="fill:#ef2d47;fill-opacity:1;fill-rule:nonzero;stroke:none"
         d="m 1610.62,1074.17 c 0,212 171.88,383.87 383.87,383.87 47.22,0 92.42,-8.54 134.17,-24.12 -78.5,62.13 -177.73,99.24 -285.62,99.24 -254.42,0 -460.66,-206.23 -460.66,-460.64 0,-254.411 206.24,-460.641 460.66,-460.641 111.49,0 213.76,39.609 293.45,105.551 -43.94,-17.5 -91.83,-27.129 -142,-27.129 -211.99,0 -383.87,171.871 -383.87,383.869 v 0" /><path
         id="path22"
         style="fill:#ef2d47;fill-opacity:1;fill-rule:nonzero;stroke:none"
         d="m 192.676,1687.04 c -51.223,0 -92.8908,-41.67 -92.8908,-92.89 V 550.891 C 99.7852,499.672 141.453,458 192.676,458 H 2222.82 c 51.21,0 92.88,41.672 92.88,92.891 V 1594.15 c 0,51.22 -41.67,92.89 -92.88,92.89 z M 2222.82,418.219 H 192.676 C 119.516,418.219 60,477.73 60,550.891 V 1594.15 c 0,73.16 59.516,132.68 132.676,132.68 H 2222.82 c 73.16,0 132.67,-59.52 132.67,-132.68 V 550.891 c 0,-73.161 -59.51,-132.672 -132.67,-132.672" /><path
         id="path24"
         style="fill:#23211f;fill-opacity:1;fill-rule:nonzero;stroke:none"
         d="M 77.6367,2139.93 H 105.195 V 1932.82 H 77.6367 v 207.11" /><path
         id="path26"
         style="fill:#23211f;fill-opacity:1;fill-rule:nonzero;stroke:none"
         d="m 158.547,2139.93 h 29.297 L 296.91,1971.98 h 0.578 v 167.95 h 26.106 V 1932.82 H 293.43 l -108.196,166.21 h -0.582 v -166.21 h -26.105 v 207.11" /><path
         id="path28"
         style="fill:#23211f;fill-opacity:1;fill-rule:nonzero;stroke:none"
         d="m 422.457,2116.73 h -69.039 v 23.2 h 165.629 v -23.2 h -69.035 v -183.91 h -27.555 v 183.91" /><path
         id="path30"
         style="fill:#23211f;fill-opacity:1;fill-rule:nonzero;stroke:none"
         d="m 549.172,2139.93 h 143 v -23.2 H 576.723 v -65.85 H 684.34 v -23.21 H 576.723 v -71.65 h 116.32 v -23.2 H 549.172 v 207.11" /><path
         id="path32"
         style="fill:#23211f;fill-opacity:1;fill-rule:nonzero;stroke:none"
         d="m 818.598,2044.49 c 25.816,0 47.863,6.68 47.863,36.85 0,20.3 -11.027,35.39 -36.844,35.39 H 761.16 v -72.24 z m -84.989,95.44 h 97.461 c 38.871,0 62.946,-21.18 62.946,-54.25 0,-24.94 -11.024,-45.54 -35.969,-52.5 v -0.57 c 24.078,-4.65 29.008,-22.34 31.035,-42.65 1.742,-20.3 0.582,-42.93 12.184,-57.14 H 870.52 c -7.832,8.41 -3.477,30.75 -7.54,51.06 -2.902,20.3 -7.835,37.41 -34.519,37.41 H 761.16 v -88.47 h -27.551 v 207.11" /><path
         id="path34"
         style="fill:#23211f;fill-opacity:1;fill-rule:nonzero;stroke:none"
         d="m 939.215,2139.93 h 29.297 l 109.068,-167.95 h 0.58 v 167.95 h 26.1 v -207.11 h -30.16 l -108.198,166.21 h -0.582 v -166.21 h -26.105 v 207.11" /><path
         id="path36"
         style="fill:#23211f;fill-opacity:1;fill-rule:nonzero;stroke:none"
         d="M 1191.81,2018.39 H 1262 l -34.51,96.59 h -0.58 z m 20.6,121.54 h 30.46 l 80.93,-207.11 h -30.46 l -22.63,62.36 h -87.6 l -23.21,-62.36 h -28.43 l 80.94,207.11" /><path
         id="path38"
         style="fill:#23211f;fill-opacity:1;fill-rule:nonzero;stroke:none"
         d="m 1371.76,2116.73 h -69.05 v 23.2 h 165.63 v -23.2 h -69.02 v -183.91 h -27.56 v 183.91" /><path
         id="path40"
         style="fill:#23211f;fill-opacity:1;fill-rule:nonzero;stroke:none"
         d="m 1499.63,2139.93 h 27.55 v -207.11 h -27.55 v 207.11" /><path
         id="path42"
         style="fill:#23211f;fill-opacity:1;fill-rule:nonzero;stroke:none"
         d="m 1668.42,1951.09 c 50.49,0 71.66,43.52 71.66,85.29 0,41.76 -21.17,85.27 -71.66,85.27 -50.46,0 -71.63,-43.51 -71.63,-85.27 0,-41.77 21.17,-85.29 71.63,-85.29 z m 0,193.77 c 65.86,0 99.21,-52.21 99.21,-108.48 0,-56.28 -33.35,-108.49 -99.21,-108.49 -65.83,0 -99.2,52.21 -99.2,108.49 0,56.27 33.37,108.48 99.2,108.48" /><path
         id="path44"
         style="fill:#23211f;fill-opacity:1;fill-rule:nonzero;stroke:none"
         d="m 1808.17,2139.93 h 29.31 l 109.06,-167.95 h 0.59 v 167.95 h 26.1 v -207.11 h -30.16 l -108.2,166.21 h -0.58 v -166.21 h -26.12 v 207.11" /><path
         id="path46"
         style="fill:#23211f;fill-opacity:1;fill-rule:nonzero;stroke:none"
         d="m 2060.78,2018.39 h 70.19 l -34.51,96.59 h -0.58 z m 20.6,121.54 h 30.46 l 80.91,-207.11 h -30.46 l -22.61,62.36 h -87.6 l -23.2,-62.36 h -28.43 l 80.93,207.11" /><path
         id="path48"
         style="fill:#23211f;fill-opacity:1;fill-rule:nonzero;stroke:none"
         d="m 2220.27,2139.93 h 27.56 v -183.91 h 109.63 v -23.2 h -137.19 v 207.11" /><path
         id="path50"
         style="fill:#23211f;fill-opacity:1;fill-rule:nonzero;stroke:none"
         d="m 319.605,212.039 h 136.04 V 188.828 H 347.156 V 122.98 h 95.149 V 99.7813 H 347.156 V 4.92969 H 319.605 V 212.039" /><path
         id="path52"
         style="fill:#23211f;fill-opacity:1;fill-rule:nonzero;stroke:none"
         d="m 493.313,212.039 h 143 V 188.828 H 520.863 V 122.98 H 628.48 V 99.7813 H 520.863 V 28.1289 H 637.184 V 4.92969 H 493.313 V 212.039" /><path
         id="path54"
         style="fill:#23211f;fill-opacity:1;fill-rule:nonzero;stroke:none"
         d="m 705.305,28.1289 h 45.828 c 18.855,0 69.621,5.2305 69.621,81.5191 0,49.301 -18.277,79.18 -69.039,79.18 h -46.41 z M 677.75,212.039 h 71.063 c 63.82,0 99.5,-31.91 99.5,-98.629 0,-69.3202 -30.461,-108.48031 -99.5,-108.48031 H 677.75 V 212.039" /><path
         id="path56"
         style="fill:#23211f;fill-opacity:1;fill-rule:nonzero;stroke:none"
         d="m 889.16,212.039 h 143 V 188.828 H 916.715 V 122.98 H 1024.33 V 99.7813 H 916.715 V 28.1289 H 1033.03 V 4.92969 H 889.16 V 212.039" /><path
         id="path58"
         style="fill:#23211f;fill-opacity:1;fill-rule:nonzero;stroke:none"
         d="m 1158.58,116.609 c 25.82,0 47.86,6.672 47.86,36.832 0,20.309 -11.02,35.387 -36.84,35.387 h -68.45 v -72.219 z m -84.99,95.43 h 97.46 c 38.88,0 62.95,-21.168 62.95,-54.238 0,-24.949 -11.03,-45.551 -35.97,-52.512 v -0.578 c 24.07,-4.641 29.01,-22.3321 31.04,-42.6329 1.73,-20.3164 0.59,-42.9375 12.18,-57.14841 h -30.75 c -7.83,8.41011 -3.47,30.75001 -7.54,51.05081 -2.9,20.3086 -7.83,37.4179 -34.51,37.4179 h -67.3 V 4.92969 h -27.56 V 212.039" /><path
         id="path60"
         style="fill:#23211f;fill-opacity:1;fill-rule:nonzero;stroke:none"
         d="m 1315.17,90.4883 h 70.2 l -34.51,96.6137 h -0.59 z m 20.59,121.5507 h 30.47 L 1447.16,4.92969 h -30.46 l -22.62,62.35941 h -87.62 l -23.2,-62.35941 h -28.43 l 80.93,207.10931" /><path
         id="path62"
         style="fill:#23211f;fill-opacity:1;fill-rule:nonzero;stroke:none"
         d="m 1494.79,188.828 h -69.04 v 23.211 h 165.64 v -23.211 h -69.03 V 4.92969 h -27.57 V 188.828" /><path
         id="path64"
         style="fill:#23211f;fill-opacity:1;fill-rule:nonzero;stroke:none"
         d="m 1622.68,212.039 h 27.55 V 4.92969 h -27.55 V 212.039" /><path
         id="path66"
         style="fill:#23211f;fill-opacity:1;fill-rule:nonzero;stroke:none"
         d="m 1791.46,23.1992 c 50.49,0 71.67,43.5196 71.67,85.2808 0,41.77 -21.18,85.29 -71.67,85.29 -50.45,0 -71.63,-43.52 -71.63,-85.29 0,-41.7612 21.18,-85.2808 71.63,-85.2808 z m 0,193.7698 c 65.86,0 99.21,-52.219 99.21,-108.489 C 1890.67,52.2109 1857.32,0 1791.46,0 c -65.83,0 -99.18,52.2109 -99.18,108.48 0,56.27 33.35,108.489 99.18,108.489" /><path
         id="path68"
         style="fill:#23211f;fill-opacity:1;fill-rule:nonzero;stroke:none"
         d="m 1931.22,212.039 h 29.31 L 2069.59,44.0898 h 0.58 V 212.039 h 26.11 V 4.92969 h -30.17 L 1957.92,171.141 h -0.59 V 4.92969 h -26.11 V 212.039" /></g></g></svg>