<svg id="Layer_1" data-name="Layer 1" xmlns="http://www.w3.org/2000/svg" viewBox="0 0 75 75"><defs><style>.cls-1{fill:#ee3425;}.cls-2{fill:#fff;}.cls-3{fill:#fac6c2;}.cls-4{fill:#f58b83;}.cls-5{fill:#feecea;}</style></defs><title>Understand Patterns with Historic Data</title><circle class="cls-1" cx="37.5" cy="37.5" r="37.5"/><path class="cls-2" d="M63.46,49.72l-2.32-2.87a2.57,2.57,0,0,1-.6-1.62V22a4.59,4.59,0,0,0-4.6-4.6H19.06a4.59,4.59,0,0,0-4.6,4.6V45.18a2.49,2.49,0,0,1-.6,1.62l-2.32,3a1.26,1.26,0,0,0-.27.76v1.35A3.08,3.08,0,0,0,14.35,55H60.6a3.14,3.14,0,0,0,3.13-3.14V50.48A1.26,1.26,0,0,0,63.46,49.72Zm-20.93.76h-.05a1.58,1.58,0,0,1-1.57,1.57H34.15a1.57,1.57,0,0,1-1.57-1.57v-.33h10Zm13.41-9.63v4.7H19.06V22H55.94Z"/><path class="cls-3" d="M45.77,11.42a16.51,16.51,0,0,0,0,33,16.36,16.36,0,0,0,8.47-2.36l.63-.38,3.89,3.89a2.61,2.61,0,0,0,4.46-1.85,2.67,2.67,0,0,0-.76-1.85l-3.67-3.77.67-1A16.5,16.5,0,0,0,45.77,11.42Zm0,28.56a12,12,0,1,1,12-12A12.08,12.08,0,0,1,45.77,40Z"/><path class="cls-4" d="M55.08,27.17H50.83L50,25.32a1,1,0,0,0-1-.59,1.16,1.16,0,0,0-1,.59l-2.19,4.76L43.41,23.3a1,1,0,0,0-.93-.68,1,1,0,0,0-1,.55l-2.06,4h-3a1.06,1.06,0,0,0,0,2.11h3.66a1,1,0,0,0,.93-.55l1.26-2.44,2.53,7a1,1,0,0,0,.93.67h0a1.15,1.15,0,0,0,1-.59l2.27-5,.17.38a1,1,0,0,0,1,.59H55a1,1,0,0,0,1.05-1.06A1,1,0,0,0,55.08,27.17Z"/><path class="cls-5" d="M45.77,40a12,12,0,1,0-12.05-12A12.08,12.08,0,0,0,45.77,40ZM36.42,27.17h3l2.06-4a1,1,0,0,1,1-.55,1,1,0,0,1,.93.68l2.44,6.78L48,25.32a1.16,1.16,0,0,1,1-.59,1,1,0,0,1,1,.59l.85,1.85h4.25a1,1,0,0,1,1,1A1,1,0,0,1,55,29.28H50.15a1,1,0,0,1-1-.59L49,28.31l-2.27,5a1.15,1.15,0,0,1-1,.59h0a1,1,0,0,1-.93-.67l-2.53-7L41,28.73a1,1,0,0,1-.93.55H36.42a1.06,1.06,0,0,1,0-2.11Z"/></svg>