<svg id="Layer_1" data-name="Layer 1" xmlns="http://www.w3.org/2000/svg" viewBox="0 0 75 75"><defs><style>.cls-1{fill:#ee3425;}.cls-2{fill:#fff;}.cls-3{fill:#fac6c2;}.cls-4{fill:#f58b83;}</style></defs><title>Hazard Response Information</title><circle class="cls-1" cx="37.5" cy="37.5" r="37.5"/><path class="cls-2" d="M54,36V27.68a6.35,6.35,0,0,0-6.34-6.33H21.13a6.34,6.34,0,0,0-6.36,6.33h0v20.4a6.34,6.34,0,0,0,6.36,6.33h2.75a.44.44,0,0,1,.43.44v6.83a1.3,1.3,0,0,0,1.3,1.3,1.34,1.34,0,0,0,.92-.38l8-8.06a.46.46,0,0,1,.31-.13H48.31A5.65,5.65,0,0,0,54,48.78V36ZM34.14,51.83a1.28,1.28,0,0,0-.92.37l-6.33,6.33V53.12a1.3,1.3,0,0,0-1.3-1.29H21.13a3.75,3.75,0,0,1-3.77-3.73h0V27.69A3.74,3.74,0,0,1,21.11,24h26.5a3.73,3.73,0,0,1,3.74,3.74v20.4a3.74,3.74,0,0,1-3.74,3.74Z"/><circle class="cls-2" cx="23.38" cy="38.49" r="2.75"/><circle class="cls-2" cx="34.36" cy="38.49" r="2.75"/><circle class="cls-2" cx="45.33" cy="38.49" r="2.75"/><path class="cls-3" d="M64.23,31.24,54.76,13.88c-1.28-2.07-2.79-3.12-4.49-3.12S47,11.81,45.78,13.88L36.31,31.24a5.17,5.17,0,0,0-1.08,3,4.36,4.36,0,0,0,4.55,4.23h21a4.32,4.32,0,0,0,4.56-4.23A5,5,0,0,0,64.23,31.24ZM48.76,19a1.51,1.51,0,0,1,2.59-1.15,1.49,1.49,0,0,1,.43,1.25v.1l-1,9.2a.52.52,0,0,1-.52.49.58.58,0,0,1-.49-.49l-1.05-9.2A.44.44,0,0,1,48.76,19Zm1.51,14.19a1.54,1.54,0,1,1,1.54-1.54A1.54,1.54,0,0,1,50.27,33.18Z"/><path class="cls-4" d="M50.27,28.88a.52.52,0,0,0,.52-.49l1-9.2v-.1a1.49,1.49,0,0,0-.43-1.25A1.51,1.51,0,0,0,48.76,19a.44.44,0,0,0,0,.2l1.05,9.2A.58.58,0,0,0,50.27,28.88Z"/><path class="cls-4" d="M50.27,30.1a1.54,1.54,0,1,0,1.54,1.54A1.54,1.54,0,0,0,50.27,30.1Z"/></svg>