<svg width="109" height="109" viewBox="0 0 109 109" fill="none" xmlns="http://www.w3.org/2000/svg">
<g clip-path="url(#clip0_2195_721)">
<path d="M54.5 109C84.5995 109 109 84.5995 109 54.5C109 24.4005 84.5995 0 54.5 0C24.4005 0 0 24.4005 0 54.5C0 84.5995 24.4005 109 54.5 109Z" fill="#F6333F"/>
<path fill-rule="evenodd" clip-rule="evenodd" d="M99.9822 64.1456V72.85L88.5333 77.3982C88.0628 76.6924 87.0433 75.673 86.3376 75.2809L71.9088 66.9687C68.6937 65.0866 65.557 63.2831 61.244 63.3615C57.4016 63.3615 54.2649 64.9298 51.2851 66.3413C47.7563 68.0665 44.5412 69.6348 41.1692 66.8902C40.6987 66.4982 40.3066 65.8708 40.3066 65.3219C40.3066 64.8514 40.6203 64.4593 41.0124 64.2241L56.1469 54.814C58.3426 53.4809 60.7735 52.3046 63.2829 51.8341C65.6354 51.3636 67.9879 51.442 70.4189 52.2262C73.0851 53.0888 76.3002 53.4809 79.4369 53.1672C82.4167 52.932 85.3966 52.1478 87.7491 50.8147L96.1397 46.0312C99.198 49.56 99.8253 55.9902 99.9038 64.2241L99.9822 64.1456Z" fill="white" stroke="white" stroke-linecap="round" stroke-linejoin="round"/>
<path fill-rule="evenodd" clip-rule="evenodd" d="M83.6714 83.6718C82.9657 83.8287 82.2599 83.7502 81.6326 83.4366L78.888 81.8682L69.3211 76.3006C68.3801 75.7517 67.1254 76.0654 66.5765 77.0064C66.0276 77.9474 66.3412 79.202 67.2822 79.751L76.8491 85.3186C77.4765 85.7107 77.8686 86.2596 78.1038 86.9654C78.4959 88.3769 77.6333 89.8668 76.2218 90.2589C75.516 90.4157 74.8103 90.3373 74.1829 90.0236L61.6362 82.8092C60.6952 82.2603 59.4405 82.574 58.8916 83.515C58.3427 84.456 58.6563 85.7107 59.5973 86.2596L69.5563 92.0625C70.0268 92.3761 70.4189 92.9251 70.5757 93.474C70.8894 94.8071 70.1837 96.0618 68.8506 96.3754C68.2232 96.5323 67.5959 96.4538 67.047 96.1402L54.5786 88.9258C52.5398 87.7495 50.6578 90.5726 53.0103 91.9841L61.5578 96.9243C63.9103 98.2574 62.2635 102.57 58.1858 100.61L53.324 98.3359C49.952 96.7675 46.0311 94.7287 42.0319 92.4546C38.6599 90.5726 35.288 88.4553 32.1513 86.1812C29.8772 84.6128 28.0736 83.2797 26.4268 82.0251C22.0355 78.81 18.8204 76.4574 12.7822 73.1639V64.1459C12.8606 55.9121 13.488 49.4035 16.5463 45.9531L24.9369 50.7366C27.2894 52.0697 30.2693 52.8538 33.2491 53.0891C36.3858 53.3243 39.6009 53.0107 42.2671 52.1481C44.4628 51.4423 46.6585 51.2855 48.8542 51.6776C49.952 51.8344 51.0499 52.1481 52.1477 52.5402L38.9736 60.774C38.3463 61.1661 37.8758 61.5582 37.4837 62.0287C36.6211 63.0481 36.3074 64.1459 36.3074 65.3222C36.3074 66.42 36.6211 67.4395 37.2484 68.3805C37.6405 69.0078 38.111 69.5567 38.6599 70.0272C43.9923 74.4186 48.3052 72.3013 53.0887 70.0272C55.6765 68.7726 58.3427 67.4395 61.2441 67.4395C64.4592 67.4395 67.1254 68.9294 69.87 70.5761L84.2988 78.8884C86.6513 80.2215 86.2592 83.2013 83.7499 83.9071L83.6714 83.6718Z" fill="white" stroke="white" stroke-linecap="round" stroke-linejoin="round"/>
<path d="M50.5785 47.2855C50.2648 47.2855 49.9512 47.2071 49.7159 46.9718C49.3238 46.5797 49.2454 46.0308 49.4807 45.5603L51.1274 42.5805H49.5591C48.9317 42.5805 48.3828 42.0315 48.3828 41.4042V20.0747C48.3828 19.4474 48.8533 18.8984 49.4807 18.8984H74.5742C75.2015 18.8984 75.7504 19.4474 75.7504 20.0747V41.4042C75.7504 41.7179 75.672 42.0315 75.4368 42.2668C75.2015 42.502 74.8878 42.5805 74.5742 42.5805H59.2044L51.049 47.2071C50.8922 47.2855 50.6569 47.3639 50.5001 47.3639L50.5785 47.2855Z" fill="white"/>
<path d="M74.6531 19.9934V41.3229H58.9696L50.5006 46.1064L53.0883 41.4013H49.5595V20.0719H74.6531M74.6531 17.6409H49.5595C48.9322 17.6409 48.3049 17.9546 47.9128 18.3467C47.5207 18.7388 47.207 19.3661 47.207 19.9934V41.3229C47.207 41.9503 47.5207 42.5776 47.9128 42.9697C48.2265 43.2834 48.697 43.5186 49.1675 43.597L48.4617 44.8517C47.9912 45.7927 48.148 46.8906 48.8538 47.6747C49.3243 48.1452 49.8732 48.3805 50.5006 48.3805C51.1279 48.3805 51.2847 48.3021 51.6768 48.0668L59.597 43.597H74.6531C75.2804 43.597 75.9078 43.2834 76.2998 42.8913C76.6919 42.4992 77.0056 41.8719 77.0056 41.2445V19.915C77.0056 18.5819 75.9077 17.5625 74.6531 17.5625V17.6409Z" fill="#F6333F"/>
<path d="M44.3051 36.3089C43.9914 36.3089 43.6777 36.2305 43.4425 35.9953C43.0504 35.6032 42.972 35.0542 43.2072 34.5837L44.854 31.6039H43.2856C42.6583 31.6039 42.1094 31.055 42.1094 30.4276V9.09813C42.1094 8.4708 42.5799 7.92188 43.2072 7.92188H68.3007C68.9281 7.92188 69.477 8.4708 69.477 9.09813V30.4276C69.477 30.7413 69.3986 31.055 69.1633 31.2902C68.9281 31.5255 68.6144 31.6039 68.3007 31.6039H52.931L44.7756 36.2305C44.6187 36.3089 44.3835 36.3873 44.2266 36.3873L44.3051 36.3089Z" fill="white"/>
<path d="M68.3796 9.01658V30.3461H52.6962L44.2271 35.1295L46.8149 30.4245H43.2861V9.095H68.3796M68.3796 6.66406H43.2861C42.6588 6.66406 42.0314 6.97773 41.6393 7.36982C41.2473 7.7619 40.9336 8.38924 40.9336 9.01658V30.3461C40.9336 30.9734 41.2473 31.6008 41.6393 31.9928C41.953 32.3065 42.4235 32.5418 42.894 32.6202L42.1883 33.8749C41.7178 34.8159 41.8746 35.9137 42.5804 36.6979C43.0509 37.1684 43.5998 37.4036 44.2271 37.4036C44.8545 37.4036 45.0113 37.3252 45.4034 37.09L53.3235 32.6202H68.3796C69.007 32.6202 69.6343 32.3065 70.0264 31.9144C70.4969 31.4439 70.7322 30.895 70.7322 30.2677V9.01658C70.7322 7.68349 69.6343 6.66406 68.3796 6.66406Z" fill="#F6333F"/>
<path d="M35.6791 41.8011C35.3654 41.8011 35.0517 41.7227 34.8165 41.4874C34.4244 41.0954 34.346 40.5464 34.5812 40.0759L36.228 37.0961H34.6597C34.0323 37.0961 33.4834 36.5472 33.4834 35.9198V14.5903C33.4834 13.963 33.9539 13.4141 34.5812 13.4141H59.6748C60.3021 13.4141 60.851 13.963 60.851 14.5903V35.9198C60.851 36.2335 60.7726 36.5472 60.5374 36.7824C60.3021 37.0177 59.9884 37.0961 59.6748 37.0961H44.305L36.1496 41.7227C35.9927 41.8011 35.7575 41.8795 35.6007 41.8795L35.6791 41.8011Z" fill="white"/>
<path d="M59.7537 14.5091V35.8386H44.0702L35.6011 40.622L38.1889 35.917H34.6601V14.5875H59.7537M59.7537 12.1565H34.6601C34.0328 12.1565 33.4055 12.4702 33.0134 12.8623C32.6213 13.2544 32.3076 13.8817 32.3076 14.5091V35.8386C32.3076 36.4659 32.6213 37.0932 33.0134 37.4853C33.327 37.799 33.7975 38.0342 34.268 38.1127L33.5623 39.3673C33.0918 40.3083 33.2486 41.4062 33.9544 42.1904C34.4249 42.6609 34.9738 42.8961 35.6011 42.8961C36.2285 42.8961 36.3853 42.8177 36.7774 42.5824L44.6975 38.1127H59.7537C60.381 38.1127 61.0083 37.799 61.4004 37.4069C61.8709 36.9364 62.1062 36.3875 62.1062 35.7601V14.4306C62.1062 13.0975 61.0083 12.0781 59.7537 12.0781V12.1565Z" fill="#F6333F"/>
<path d="M40.7764 20.3906H54.1073" stroke="#F6333F" stroke-width="3" stroke-linecap="round" stroke-linejoin="round"/>
<path d="M40.7764 25.0938H54.1073" stroke="#F6333F" stroke-width="3" stroke-linecap="round" stroke-linejoin="round"/>
<path d="M40.7764 29.7969H54.1073" stroke="#F6333F" stroke-width="3" stroke-linecap="round" stroke-linejoin="round"/>
</g>
<defs>
<clipPath id="clip0_2195_721">
<rect width="109" height="109" fill="white"/>
</clipPath>
</defs>
</svg>
