<svg width="109" height="109" viewBox="0 0 109 109" fill="none" xmlns="http://www.w3.org/2000/svg">
<g clip-path="url(#clip0_2195_703)">
<path d="M54.5 109C84.5995 109 109 84.5995 109 54.5C109 24.4005 84.5995 0 54.5 0C24.4005 0 0 24.4005 0 54.5C0 84.5995 24.4005 109 54.5 109Z" fill="#F6333F"/>
<path d="M54.9709 85.9417C69.1761 85.9417 80.6917 74.4261 80.6917 60.2209C80.6917 46.0156 69.1761 34.5 54.9709 34.5C40.7656 34.5 29.25 46.0156 29.25 60.2209C29.25 74.4261 40.7656 85.9417 54.9709 85.9417Z" stroke="white" stroke-width="3" stroke-linecap="round" stroke-linejoin="round"/>
<path d="M73.6336 41.3259C76.3621 41.3259 78.5739 39.114 78.5739 36.3856C78.5739 33.6572 76.3621 31.4453 73.6336 31.4453C70.9052 31.4453 68.6934 33.6572 68.6934 36.3856C68.6934 39.114 70.9052 41.3259 73.6336 41.3259Z" fill="white" stroke="white" stroke-width="3" stroke-linecap="round" stroke-linejoin="round"/>
<path d="M62.9688 53.2432C62.9688 47.2835 67.7522 42.5 73.7119 42.5C79.6716 42.5 84.4551 47.2835 84.4551 53.2432H62.9688Z" fill="white" stroke="white" stroke-width="3" stroke-linecap="round" stroke-linejoin="round"/>
<path d="M73.6336 77.3962C76.3621 77.3962 78.5739 75.1844 78.5739 72.4559C78.5739 69.7275 76.3621 67.5156 73.6336 67.5156C70.9052 67.5156 68.6934 69.7275 68.6934 72.4559C68.6934 75.1844 70.9052 77.3962 73.6336 77.3962Z" fill="white" stroke="white" stroke-width="3" stroke-linecap="round" stroke-linejoin="round"/>
<path d="M62.9688 89.001C62.9688 83.0413 67.7522 78.2578 73.7119 78.2578C79.6716 78.2578 84.4551 83.0413 84.4551 89.001H62.9688Z" fill="white" stroke="white" stroke-width="3" stroke-linecap="round" stroke-linejoin="round"/>
<path d="M24.623 52.7744C24.623 46.8147 29.4065 42.0312 35.3662 42.0312C41.3259 42.0312 46.1094 46.8147 46.1094 52.7744H24.623Z" fill="white" stroke="white" stroke-width="3" stroke-linecap="round" stroke-linejoin="round"/>
<path d="M35.3661 41.7165C38.0945 41.7165 40.3064 39.5047 40.3064 36.7762C40.3064 34.0478 38.0945 31.8359 35.3661 31.8359C32.6376 31.8359 30.4258 34.0478 30.4258 36.7762C30.4258 39.5047 32.6376 41.7165 35.3661 41.7165Z" fill="white" stroke="white" stroke-width="3" stroke-linecap="round" stroke-linejoin="round"/>
<path d="M24.623 89.001C24.623 83.0413 29.4065 78.2578 35.3662 78.2578C41.3259 78.2578 46.1094 83.0413 46.1094 89.001H24.623Z" fill="white" stroke="white" stroke-width="3" stroke-linecap="round" stroke-linejoin="round"/>
<path d="M35.3661 77.3962C38.0945 77.3962 40.3064 75.1844 40.3064 72.4559C40.3064 69.7275 38.0945 67.5156 35.3661 67.5156C32.6376 67.5156 30.4258 69.7275 30.4258 72.4559C30.4258 75.1844 32.6376 77.3962 35.3661 77.3962Z" fill="white" stroke="white" stroke-width="3" stroke-linecap="round" stroke-linejoin="round"/>
<path d="M54.5 25.8787V3.92188" stroke="white" stroke-width="3" stroke-linecap="round" stroke-linejoin="round" stroke-dasharray="10 10 10 10 10 10"/>
</g>
<defs>
<clipPath id="clip0_2195_703">
<rect width="109" height="109" fill="white"/>
</clipPath>
</defs>
</svg>
