<svg width="109" height="109" viewBox="0 0 109 109" fill="none" xmlns="http://www.w3.org/2000/svg">
<g clip-path="url(#clip0_2195_754)">
<path d="M54.5 109C84.5995 109 109 84.5995 109 54.5C109 24.4005 84.5995 0 54.5 0C24.4005 0 0 24.4005 0 54.5C0 84.5995 24.4005 109 54.5 109Z" fill="#F6333F"/>
<path d="M60.7732 43.6016H80.848C83.5142 43.6016 85.6315 45.7188 85.6315 48.385V75.439C85.6315 78.1052 83.5142 80.2224 80.848 80.2224H28.1516C25.4854 80.2224 23.3682 78.1052 23.3682 75.439V48.385C23.3682 45.7188 25.4854 43.6016 28.1516 43.6016H60.7732Z" fill="white" stroke="white" stroke-width="3" stroke-linecap="round" stroke-linejoin="round"/>
<path d="M66.1058 70.3442H52.1475L44.6194 74.5787L46.9719 70.3442H43.7568V51.4456L66.0273 51.3672L66.1058 70.3442Z" fill="#F6333F" stroke="#F6333F" stroke-width="3" stroke-linecap="round" stroke-linejoin="round"/>
<path d="M49.168 56.0703H62.4989" stroke="white" stroke-width="3" stroke-linecap="round" stroke-linejoin="round"/>
<path d="M49.168 60.7734H62.4989" stroke="white" stroke-width="3" stroke-linecap="round" stroke-linejoin="round"/>
<path d="M49.168 65.4844H62.4989" stroke="white" stroke-width="3" stroke-linecap="round" stroke-linejoin="round"/>
<path d="M65.8701 86.4924L61.2435 80.1406H49.0104L44.3838 86.4924" fill="white"/>
<path d="M65.8701 86.4924L61.2435 80.1406H49.0104L44.3838 86.4924" stroke="white" stroke-width="3" stroke-linecap="round" stroke-linejoin="round"/>
<path d="M75.359 86.6562H35.3662V90.4203H75.359V86.6562Z" fill="white" stroke="white" stroke-width="3" stroke-linecap="round" stroke-linejoin="round"/>
<path d="M54.2646 13.0938V35.4427" stroke="white" stroke-width="3" stroke-linecap="round" stroke-linejoin="round"/>
<path d="M63.1258 20.1493L54.4999 11.5234L45.874 20.1493" stroke="white" stroke-width="3" stroke-linecap="round" stroke-linejoin="round"/>
</g>
<defs>
<clipPath id="clip0_2195_754">
<rect width="109" height="109" fill="white"/>
</clipPath>
</defs>
</svg>
