<svg width="109" height="109" viewBox="0 0 109 109" fill="none" xmlns="http://www.w3.org/2000/svg">
<g clip-path="url(#clip0_2195_743)">
<path d="M54.5 109C84.5995 109 109 84.5995 109 54.5C109 24.4005 84.5995 0 54.5 0C24.4005 0 0 24.4005 0 54.5C0 84.5995 24.4005 109 54.5 109Z" fill="#F6333F"/>
<path d="M76.8494 42.1112C83.358 42.1112 88.612 36.8573 88.612 30.3486C88.612 23.84 83.358 18.586 76.8494 18.586C70.3407 18.586 73.399 18.9781 71.9091 19.6839C70.4191 13.0184 64.5379 8.07812 57.4019 8.07812C50.2659 8.07812 46.345 11.5285 43.9925 16.5472C42.1889 15.1357 39.9933 14.2731 37.5623 14.2731C31.8379 14.2731 27.2897 18.8997 27.2897 24.5458C27.2897 30.1918 27.2897 25.5652 27.3681 26.0357C26.7407 25.8788 26.035 25.8004 25.3292 25.8004C20.8594 25.8004 17.1738 29.4076 17.1738 33.9558C17.1738 38.504 20.781 42.1112 25.3292 42.1112H76.8494Z" fill="white" stroke="white" stroke-width="3" stroke-linecap="round" stroke-linejoin="round"/>
<path d="M68.2231 43.7578V61.3233H53.167" stroke="white" stroke-width="3" stroke-linecap="round" stroke-linejoin="round"/>
<path d="M29.7988 40.3828V88.6094H41.0909" stroke="white" stroke-width="3" stroke-linecap="round" stroke-linejoin="round"/>
<path d="M75.3594 40.4609H91.9838V62.7314" stroke="white" stroke-width="3" stroke-linecap="round" stroke-linejoin="round"/>
<path d="M51.3642 67.8358C54.8289 67.8358 57.6376 65.0271 57.6376 61.5624C57.6376 58.0978 54.8289 55.2891 51.3642 55.2891C47.8995 55.2891 45.0908 58.0978 45.0908 61.5624C45.0908 65.0271 47.8995 67.8358 51.3642 67.8358Z" fill="white" stroke="white" stroke-width="3" stroke-linecap="round" stroke-linejoin="round"/>
<path d="M49.0117 94.4921C52.4764 94.4921 55.285 91.6834 55.285 88.2187C55.285 84.754 52.4764 81.9453 49.0117 81.9453C45.547 81.9453 42.7383 84.754 42.7383 88.2187C42.7383 91.6834 45.547 94.4921 49.0117 94.4921Z" fill="white" stroke="white" stroke-width="3" stroke-linecap="round" stroke-linejoin="round"/>
<path d="M91.3564 75.6718C94.8211 75.6718 97.6298 72.8631 97.6298 69.3984C97.6298 65.9337 94.8211 63.125 91.3564 63.125C87.8917 63.125 85.083 65.9337 85.083 69.3984C85.083 72.8631 87.8917 75.6718 91.3564 75.6718Z" fill="white" stroke="white" stroke-width="3" stroke-linecap="round" stroke-linejoin="round"/>
</g>
<defs>
<clipPath id="clip0_2195_743">
<rect width="109" height="109" fill="white"/>
</clipPath>
</defs>
</svg>
