<svg id="Layer_1" data-name="Layer 1" xmlns="http://www.w3.org/2000/svg" viewBox="0 0 75 75"><defs><style>.cls-1{fill:#ee3425;}.cls-2{fill:#fff;}.cls-3{fill:#feecea;}.cls-4{fill:#fac6c2;}.cls-5{fill:#f58b83;}</style></defs><title>Global Hazard Mapping</title><circle class="cls-1" cx="37.5" cy="37.5" r="37.5"/><path class="cls-2" d="M37.49,11.88A25.62,25.62,0,1,0,63.12,37.51,25.64,25.64,0,0,0,37.49,11.88Zm0,2.26a24,24,0,0,1,3.91.34,15.56,15.56,0,0,0-2,2.46,1.14,1.14,0,0,0,1,1.78c1.69,0,2.4.36,2.66.64.62,1.18,0,2.5-.32,3.68A3,3,0,0,0,43,25.78a1.79,1.79,0,0,0,1.44.48c-.29.23-.53.4-.87.68a8,8,0,0,0-3.17,4.68,8.23,8.23,0,0,0,.7,4.27,3.89,3.89,0,0,0,2.65,1.6c1.79.33,3.38.19,4.34.86a16.72,16.72,0,0,1,2,5c.57,2,1.08,4.09,2.7,5.31a1.21,1.21,0,0,0,1.8-.7,5.8,5.8,0,0,1,1.28-2.67c1.71-2,2.3-4.38,3.89-6.55a5.92,5.92,0,0,1,1.1-1.13,23.33,23.33,0,1,1-46.15-4.95c1.19.74,1.52,2.3,1.8,3.4a1.17,1.17,0,0,0,.3.53,10.82,10.82,0,0,1,3.65,8.31,1.13,1.13,0,0,0,.27.73c1.53,1.84,3.36,3.25,4.74,5a10,10,0,0,1,2.39,6.83,1.16,1.16,0,0,0,.78,1.07l1.71.57a1.18,1.18,0,0,0,1.37-.57c.53-4.66,2.61-7.33,5.14-10,1.5-1.58,3-3.32,3-6.48a1.17,1.17,0,0,0-.86-1.1c-1.84-.46-3.5-2.21-5.86-3.47-2.19-1.17-5.13-1.51-8.9.34a3.55,3.55,0,0,1-.32-2,1.14,1.14,0,0,0-.49-1,5.46,5.46,0,0,1-1.53-1.37,1.19,1.19,0,0,0,1.33-.59c1.27-2.53,3.63-4.27,6-5.73s4.75-2.47,5.92-4.43a7.6,7.6,0,0,0-.49-4.8,27.65,27.65,0,0,0-1.75-3.3,24,24,0,0,1,4.68-.48Z"/><circle class="cls-3" cx="50.6" cy="27.89" r="16.01"/><circle class="cls-4" cx="50.6" cy="27.89" r="10.22"/><circle class="cls-5" cx="50.6" cy="27.89" r="4.03"/></svg>